<?xml version="1.0" standalone="no"?><!-- Generator: Gravit.io --><svg xmlns="http://www.w3.org/2000/svg" xmlns:xlink="http://www.w3.org/1999/xlink" style="isolation:isolate" viewBox="-4 -26.861789575288398 465 188.77800000000002" width="465" height="188.77800000000002"><g transform="matrix(1,0,0,1,-4,-26.861789575288398)"><text transform="matrix(1,0,0,1,0,145.2)" style="font-family:&quot;Montserrat&quot;;font-weight:700;font-size:150px;font-style:normal;letter-spacing:9;fill:#0071d6;stroke:none;">GU</text><text transform="matrix(1,0,0,1,241.8,145.2)" style="font-family:&quot;Unna&quot;;font-weight:700;font-size:162px;font-style:italic;letter-spacing:9;fill:#0071d6;stroke:none;">ide</text></g><g style="isolation:isolate"><path d=" M 221.1795366795365 56.157189189190355 L 220.99999999999983 56.157189189190355 L 220.99999999999983 56.33672586872703 L 220.82046332046315 56.33672586872703 L 220.82046332046315 56.33672586872703 L 220.82046332046315 56.51626254826371 L 220.82046332046315 56.51626254826371 L 220.82046332046315 56.51626254826371 L 220.64092664092647 56.51626254826371 L 220.64092664092647 56.51626254826371 L 220.64092664092647 56.69579922780039 L 220.46138996138978 56.69579922780039 L 220.46138996138978 56.69579922780039 L 220.46138996138978 56.875335907337075 L 220.10231660231648 56.875335907337075 L 219.9227799227798 56.875335907337075 L 219.9227799227798 56.69579922780039 L 220.10231660231648 56.51626254826371 L 220.10231660231648 56.33672586872703 L 220.10231660231648 56.157189189190355 L 220.2818532818531 56.157189189190355 L 220.2818532818531 56.157189189190355 L 220.2818532818531 55.97765250965367 L 220.46138996138978 55.97765250965367 L 220.46138996138978 55.97765250965367 L 220.46138996138978 55.79811583011699 L 220.46138996138978 55.79811583011699 L 220.46138996138978 55.79811583011699 L 220.64092664092647 55.61857915058032 L 220.82046332046315 55.439042471043635 L 220.82046332046315 55.439042471043635 L 220.82046332046315 55.439042471043635 L 220.82046332046315 55.25950579150695 Q 220.82046332046315 55.25950579150695 221.3590733590732 54.9004324324336 Q 221.71814671814656 54.36182239382356 223.15444015444 53.64367567567684 Q 224.59073359073346 52.92552895753012 226.20656370656354 52.92552895753012 Q 228.00193050193036 52.92552895753012 229.07915057915045 53.46413899614016 Q 230.33590733590717 54.002749034750195 231.77220077220062 55.07996911197028 Q 233.0289575289574 56.157189189190355 234.28571428571416 57.77301930502047 Q 235.54247104247088 59.38884942085058 236.08108108108092 61.18421621621738 Q 236.61969111969097 63.15911969112086 236.61969111969097 65.13402316602433 Q 236.61969111969097 67.28846332046449 236.08108108108092 69.08383011583129 Q 235.54247104247088 71.05873359073476 234.10617760617748 73.03363706563823 Q 233.0289575289574 75.0085405405417 231.59266409266394 76.26529729729847 Q 230.15637065637048 77.52205405405522 227.82239382239368 78.77881081081198 Q 225.48841698841682 80.21510424710542 222.43629343629328 80.93325096525214 Q 219.38416988416975 82.0104710424722 215.79343629343614 82.36954440154557 Q 212.38223938223922 82.72861776061893 207.89382239382223 82.36954440154557 Q 203.22586872586857 82.36954440154557 198.19884169884153 81.29232432432549 Q 193.1718146718145 80.21510424710542 188.8629343629342 78.77881081081198 Q 184.5540540540539 77.34251737451854 181.32239382239368 75.54715057915175 Q 178.27027027027012 73.75178378378496 176.65444015444 72.3154903474915 Q 174.8590733590732 70.87919691119808 174.49999999999983 70.6996602316614 Q 174.14092664092647 70.52012355212472 173.42277992277977 71.05873359073476 Q 172.88416988416972 71.5973436293448 170.5501930501929 73.3927104247116 Q 168.21621621621605 75.18807722007838 164.9845559845558 76.62437065637182 Q 161.7528957528956 78.06066409266526 157.2644787644786 79.49695752895869 Q 152.9555984555983 80.93325096525214 147.5694980694979 81.83093436293552 Q 142.18339768339752 82.72861776061893 138.59266409266394 82.90815444015561 Q 135.181467181467 83.0876911196923 133.5656370656369 82.72861776061893 Q 131.94980694980677 82.72861776061893 128.53861003860987 81.83093436293552 Q 124.94787644787628 80.93325096525214 122.43436293436277 79.85603088803205 Q 120.10038610038593 78.77881081081198 118.48455598455581 77.7015907335919 Q 116.8687258687257 76.26529729729847 115.61196911196895 74.64946718146834 Q 114.1756756756755 72.85410038610155 113.45752895752878 70.6996602316614 Q 112.73938223938207 68.54522007722124 112.55984555984539 66.21124324324441 Q 112.38030888030872 64.05680308880426 112.73938223938207 62.62050965251082 Q 113.09845559845543 61.36375289575406 113.81660231660214 59.568386100387265 Q 114.89382239382222 57.77301930502047 115.43243243243226 57.23440926641043 Q 116.15057915057898 56.51626254826371 116.15057915057898 56.33672586872703 Q 116.15057915057898 56.157189189190355 116.50965250965234 55.97765250965367 Q 116.8687258687257 55.79811583011699 118.48455598455581 54.9004324324336 Q 120.10038610038593 54.002749034750195 122.0752895752894 54.002749034750195 Q 124.22972972972957 54.002749034750195 125.666023166023 54.54135907336024 L 127.10231660231644 55.07996911197028 L 127.10231660231644 55.25950579150695 L 127.10231660231644 55.25950579150695 L 127.28185328185312 55.25950579150695 L 127.28185328185312 55.439042471043635 L 127.28185328185312 55.439042471043635 L 127.46138996138978 55.439042471043635 L 127.46138996138978 55.439042471043635 L 127.46138996138978 55.439042471043635 L 127.64092664092647 55.61857915058032 L 127.82046332046315 55.79811583011699 L 127.82046332046315 55.79811583011699 L 127.82046332046315 55.79811583011699 L 127.99999999999983 55.79811583011699 L 127.99999999999983 55.79811583011699 L 127.99999999999983 55.97765250965367 L 128.1795366795365 55.97765250965367 L 128.1795366795365 56.157189189190355 L 128.1795366795365 56.33672586872703 L 127.82046332046315 56.33672586872703 L 127.28185328185312 56.157189189190355 L 127.10231660231644 56.157189189190355 L 126.92277992277975 56.157189189190355 L 126.92277992277975 55.97765250965367 L 126.74324324324309 55.97765250965367 L 126.74324324324309 55.97765250965367 L 126.74324324324309 55.79811583011699 L 126.02509652509636 55.79811583011699 Q 125.48648648648631 55.439042471043635 124.05019305019289 55.61857915058032 Q 122.61389961389945 55.79811583011699 121.53667953667937 56.51626254826371 Q 120.63899613899596 57.41394594594711 119.92084942084925 58.67070270270386 Q 119.20270270270254 59.92745945946062 119.20270270270254 62.261436293437455 Q 119.20270270270254 64.77494980695097 119.92084942084925 65.67263320463437 Q 120.45945945945928 66.57031660231777 121.35714285714269 67.1089266409278 Q 122.25482625482609 67.64753667953784 123.8706563706562 67.64753667953784 Q 125.666023166023 67.64753667953784 128.1795366795365 66.57031660231777 Q 130.8725868725867 65.49309652509768 135.00193050193033 63.15911969112086 Q 139.31081081081064 60.82514285714402 143.4401544401543 58.31162934363051 Q 147.7490347490346 55.79811583011699 150.80115830115813 54.36182239382356 Q 154.03281853281837 52.92552895753012 156.18725868725852 52.56645559845676 Q 158.52123552123535 51.84830888031004 161.39382239382223 52.027845559846725 Q 164.26640926640908 52.2073822393834 166.9594594594593 52.92552895753012 Q 169.65250965250948 54.002749034750195 171.62741312741298 55.25950579150695 Q 173.7818532818531 56.51626254826371 173.96138996138978 56.69579922780039 Q 174.14092664092647 56.875335907337075 176.11583011582997 55.439042471043635 Q 178.09073359073344 54.002749034750195 180.78378378378363 53.28460231660348 Q 183.4768339768338 52.2073822393834 184.73359073359057 52.2073822393834 Q 185.99034749034735 51.84830888031004 189.22200772200756 52.027845559846725 Q 192.4536679536678 52.2073822393834 194.96718146718132 52.745992277993444 Q 197.30115830115813 53.28460231660348 200.71235521235508 55.07996911197028 Q 204.12355212355197 56.875335907337075 210.58687258687243 61.18421621621738 Q 217.0501930501929 65.49309652509768 219.38416988416975 66.21124324324441 Q 221.53861003860987 67.28846332046449 223.51351351351337 67.28846332046449 Q 225.48841698841682 67.28846332046449 226.92471042471027 66.57031660231777 Q 228.36100386100372 65.85216988417105 229.07915057915045 65.13402316602433 Q 229.79729729729712 64.23633976834094 229.79729729729712 62.08189961390078 Q 229.79729729729712 59.92745945946062 229.07915057915045 58.67070270270386 Q 228.36100386100372 57.41394594594711 227.46332046332031 56.51626254826371 Q 226.5656370656369 55.79811583011699 225.84749034749018 55.439042471043635 Q 224.94980694980677 55.07996911197028 223.69305019305006 55.07996911197028 Q 222.61583011582997 55.07996911197028 221.89768339768324 55.61857915058032 Q 221.3590733590732 56.157189189190355 221.1795366795365 56.157189189190355 Z " fill-rule="evenodd" fill="rgb(214,0,116)"/></g></svg>